<?xml version="1.0" standalone="no"?>
<!DOCTYPE svg PUBLIC "-//W3C//DTD SVG 20010904//EN"
 "http://www.w3.org/TR/2001/REC-SVG-20010904/DTD/svg10.dtd">
<svg version="1.0" xmlns="http://www.w3.org/2000/svg"
 width="1024.000000pt" height="1024.000000pt" viewBox="0 0 1024.000000 1024.000000"
 preserveAspectRatio="xMidYMid meet">

<g transform="translate(0.000000,1024.000000) scale(0.100000,-0.100000)"
fill="#000000" stroke="none">
<path d="M0 5120 l0 -5120 5120 0 5120 0 0 5120 0 5120 -5120 0 -5120 0 0
-5120z m5377 4150 c494 -27 996 -159 1423 -374 688 -346 1193 -776 1563 -1334
269 -404 562 -1222 622 -1739 40 -342 23 -816 -40 -1090 -60 -261 -239 -695
-370 -895 -181 -275 -591 -731 -800 -888 -255 -191 -571 -359 -849 -449 -132
-43 -189 -73 -253 -133 -93 -89 -116 -160 -138 -433 -8 -99 -20 -201 -28 -226
-65 -212 -325 -367 -827 -494 -122 -31 -303 -60 -510 -82 -217 -22 -601 -22
-754 1 -229 34 -605 130 -741 191 -77 34 -150 105 -170 166 -9 27 -29 122 -44
209 -30 170 -38 187 -96 218 -54 28 -95 32 -180 16 -206 -38 -324 -46 -605
-41 -294 5 -352 13 -537 71 -171 55 -270 112 -303 176 -38 74 -41 118 -20 230
14 72 20 142 20 239 0 75 4 177 10 226 5 50 10 131 10 181 0 103 -3 107 -82
142 -65 28 -133 94 -155 150 -29 74 -24 225 9 328 83 253 85 527 5 669 -37 65
-90 95 -188 106 -155 18 -221 29 -252 46 -50 25 -95 64 -125 107 -25 36 -27
47 -27 135 0 86 4 107 37 196 20 55 49 141 63 190 34 117 63 187 130 315 118
226 235 460 278 560 82 189 81 188 82 520 1 288 1 297 28 394 98 361 372 813
716 1178 134 143 411 372 641 530 551 378 1244 626 1895 677 277 22 339 23
562 11z"/>
<path d="M5430 8824 c0 -15 26 -19 34 -5 3 5 -3 11 -14 14 -13 3 -20 0 -20 -9z"/>
<path d="M5612 8803 c2 -11 14 -19 31 -21 15 -2 27 -9 27 -17 0 -7 3 -21 7
-31 4 -12 2 -15 -8 -12 -25 9 -49 -11 -49 -42 0 -17 -5 -30 -11 -30 -5 0 -17
-17 -25 -37 -11 -25 -18 -32 -24 -24 -5 10 -9 10 -15 2 -10 -18 22 -61 46 -61
16 0 19 -4 14 -21 -4 -12 -9 -31 -11 -42 -13 -80 -27 -105 -67 -120 -10 -4
-16 -10 -14 -15 9 -13 -22 -74 -33 -67 -6 4 -9 13 -6 21 3 7 1 16 -5 19 -6 4
-9 -8 -7 -30 1 -20 9 -40 17 -44 12 -7 10 -11 -7 -20 -17 -9 -35 -50 -37 -86
0 -5 -4 -16 -9 -23 -4 -7 -8 -38 -7 -68 0 -40 -3 -54 -14 -54 -9 0 -16 -16
-20 -47 -7 -56 -22 -98 -46 -133 -23 -34 -15 -100 12 -100 10 0 19 -4 19 -10
0 -5 -9 -10 -20 -10 -13 0 -24 -10 -30 -26 -13 -34 -13 -57 1 -48 6 3 15 0 20
-7 11 -19 -10 -30 -32 -16 -10 6 -22 7 -26 3 -4 -5 -2 -11 4 -13 9 -3 10 -10
3 -23 -12 -23 -16 -72 -6 -88 4 -6 3 -20 -3 -30 -5 -10 -6 -24 0 -34 6 -10 4
-19 -4 -26 -13 -10 -62 -23 -90 -23 -26 0 -17 -33 11 -37 32 -5 27 -23 -23
-84 -25 -30 -45 -62 -45 -70 0 -8 -8 -26 -19 -39 -19 -25 -81 -160 -81 -178 0
-6 -11 -43 -24 -83 -13 -40 -30 -100 -37 -133 -14 -67 -36 -104 -25 -42 5 27
3 37 -6 37 -13 0 -52 -56 -53 -77 -1 -22 -15 -26 -15 -5 0 12 -4 22 -8 22 -15
0 -32 -49 -32 -90 0 -29 -4 -40 -15 -40 -10 0 -15 10 -15 33 0 45 -22 76 -43
59 -8 -7 -22 -9 -32 -6 -15 6 -16 3 -10 -24 7 -35 0 -40 -25 -17 -15 14 -18
14 -30 0 -7 -8 -28 -15 -46 -15 -19 0 -34 -4 -34 -10 0 -5 -11 -17 -25 -26
-22 -14 -30 -15 -53 -4 -35 16 -90 22 -97 9 -10 -16 -25 -10 -25 10 0 11 6 22
13 24 6 3 0 6 -15 6 -20 1 -25 -3 -21 -17 5 -21 -32 -58 -69 -67 -25 -6 -28
-4 -41 42 -8 26 -17 47 -21 46 -23 -9 -50 2 -86 36 l-41 38 -37 -18 c-20 -11
-44 -24 -53 -30 -12 -9 -26 -6 -62 14 l-46 26 -21 -26 c-11 -14 -20 -29 -20
-33 0 -4 -11 -12 -24 -18 -23 -10 -25 -9 -31 18 -4 16 -4 34 -1 39 3 5 -11 11
-32 13 -57 7 -124 -14 -110 -34 6 -11 -26 -49 -38 -44 -9 4 -14 -2 -14 -17 0
-32 -10 -42 -56 -55 -25 -7 -44 -19 -47 -31 -3 -13 -17 -20 -48 -24 -24 -3
-46 -1 -50 4 -7 13 -36 2 -43 -17 -3 -8 -17 -14 -31 -14 -21 0 -30 8 -43 40
-10 24 -22 38 -30 35 -8 -3 -7 4 4 20 15 23 15 25 0 25 -9 0 -16 -7 -16 -15 0
-8 -7 -15 -15 -15 -8 0 -15 5 -15 11 0 5 -5 7 -10 4 -6 -4 -17 -1 -25 5 -12
10 -22 8 -51 -9 -26 -16 -40 -19 -47 -12 -16 16 -37 13 -37 -4 0 -10 6 -12 18
-8 15 6 15 5 3 -11 -8 -9 -26 -23 -41 -31 -15 -8 -36 -35 -50 -65 -18 -38 -26
-47 -32 -36 -6 11 -18 14 -38 9 -23 -4 -30 -2 -30 10 0 19 -40 45 -64 41 -11
-1 -28 2 -38 7 -15 8 -17 17 -12 47 9 49 21 72 39 72 8 0 22 11 31 25 16 25
16 26 -22 60 -22 19 -44 34 -51 35 -11 0 -28 93 -21 117 1 6 -6 18 -16 26 -18
13 -18 16 -3 62 9 26 14 52 11 57 -3 5 2 18 11 28 13 15 16 29 11 59 -10 68 3
129 33 147 23 14 26 22 27 77 1 35 6 63 13 65 6 2 11 13 11 24 0 11 13 37 28
57 24 30 27 42 22 73 -4 21 -3 35 2 32 13 -8 37 26 38 52 0 12 6 27 14 34 8 6
12 18 9 26 -3 9 2 14 17 14 19 0 22 4 17 26 -3 17 5 47 19 78 13 28 24 58 24
67 0 24 -109 122 -158 141 -42 16 -43 16 -71 -8 -40 -34 -186 -212 -244 -297
-137 -203 -279 -471 -327 -614 -99 -298 -124 -476 -117 -823 12 -551 100 -886
296 -1116 120 -141 243 -215 390 -235 140 -19 295 16 443 100 223 126 440 221
593 260 207 52 320 65 550 65 203 0 230 -2 344 -27 163 -36 234 -58 320 -101
39 -20 77 -36 85 -36 8 0 17 -6 19 -12 4 -8 6 -7 6 4 1 9 -6 24 -15 33 -15 15
-15 18 6 41 13 13 29 24 37 24 14 0 16 9 13 53 -1 18 3 27 13 27 20 0 41 -26
27 -35 -18 -11 -11 -35 10 -35 11 0 20 7 20 15 0 8 9 24 20 35 20 20 20 20
-10 20 -16 0 -30 4 -30 9 0 6 8 10 18 10 9 0 30 3 45 7 19 4 33 1 47 -11 19
-17 42 -13 39 8 -4 30 3 37 35 37 19 0 37 4 41 10 3 5 12 7 20 4 10 -4 18 4
25 21 9 24 14 27 43 21 25 -4 28 -3 15 5 -26 15 -23 49 3 49 12 0 23 8 26 19
3 13 17 20 46 24 23 3 44 1 48 -4 4 -6 15 -6 31 0 17 6 29 6 36 -1 7 -7 21 -6
46 3 40 14 56 39 26 39 -47 0 -1 44 58 56 24 5 32 3 30 -6 -5 -22 19 -22 25 1
5 19 10 21 46 15 24 -4 42 -2 46 5 4 6 18 8 32 4 18 -4 29 0 43 17 l19 23 25
-30 24 -30 -2 30 c-2 17 -7 38 -11 48 -6 13 0 20 24 28 17 6 31 18 31 26 0 12
3 12 16 -2 13 -12 26 -15 58 -10 22 4 47 12 54 18 9 7 18 5 30 -5 25 -22 46
-33 39 -20 -10 14 2 42 18 42 7 0 18 7 26 16 10 12 23 14 56 9 38 -5 46 -3 68
21 33 35 32 50 -6 85 -31 28 -31 30 -14 49 15 17 16 22 4 37 -13 15 -12 16 6
9 42 -15 175 -99 211 -131 20 -19 40 -32 44 -30 8 5 221 -115 250 -140 8 -7
43 -27 78 -44 35 -17 82 -46 105 -65 23 -19 94 -69 157 -111 97 -65 119 -76
145 -71 16 3 56 9 88 12 56 7 57 6 53 -17 -2 -16 -9 -23 -20 -21 -9 2 -16 -2
-16 -8 0 -11 -15 -8 -59 8 -34 13 4 -23 129 -123 74 -58 140 -110 146 -113 6
-4 34 -39 61 -78 28 -39 66 -90 84 -115 95 -125 144 -306 120 -446 -15 -85
-26 -103 -68 -108 -34 -4 -83 -31 -83 -46 0 -5 -6 -9 -13 -9 -18 0 -49 34 -40
43 3 4 1 7 -6 7 -8 0 -11 -7 -7 -15 3 -8 1 -15 -4 -15 -6 0 -10 -6 -10 -14 0
-15 -51 -29 -75 -20 -8 4 -15 1 -15 -5 0 -6 -18 -14 -40 -17 -22 -4 -43 -11
-46 -15 -3 -5 -16 -9 -28 -9 -13 0 -35 -9 -49 -20 -14 -11 -29 -20 -34 -20 -5
0 -15 -9 -23 -20 -8 -11 -22 -20 -32 -20 -9 0 -20 -5 -23 -10 -8 -14 -82 -13
-91 1 -4 8 -9 7 -15 -2 -6 -10 -9 -11 -9 -1 0 20 -31 14 -37 -8 -3 -11 -14
-20 -24 -20 -10 0 -20 -4 -23 -9 -3 -4 -20 -11 -38 -15 -24 -5 -37 -1 -55 16
-21 19 -25 20 -50 8 -16 -8 -35 -15 -44 -16 -10 0 -30 -11 -47 -23 -34 -24
-48 -26 -55 -8 -4 8 -8 9 -14 2 -21 -26 -143 -49 -143 -26 0 5 -3 16 -6 25 -4
12 0 16 15 16 12 0 21 -5 21 -12 0 -9 3 -9 13 1 10 10 7 16 -11 31 -13 11 -30
16 -37 13 -8 -3 -15 0 -15 6 0 6 -7 11 -15 11 -8 0 -15 -4 -15 -9 0 -12 -52
-11 -67 1 -16 13 -63 -13 -102 -58 -29 -32 -35 -35 -54 -25 -22 12 -81 10 -94
-2 -3 -4 4 -7 17 -7 19 0 21 -2 10 -15 -9 -11 -30 -16 -64 -15 -98 0 -120 -8
-139 -51 -11 -25 -22 -37 -31 -33 -7 3 -16 -2 -20 -11 -4 -11 -13 -14 -25 -10
-13 4 -24 -1 -35 -17 -19 -27 -20 -45 -3 -51 6 -2 -1 -2 -18 0 -41 6 -354 154
-435 205 -36 23 -105 74 -155 113 -207 165 -278 208 -773 467 -131 69 -304
128 -447 154 -137 24 -477 25 -582 1 -290 -65 -641 -302 -812 -548 l-45 -64
36 27 c37 28 82 37 93 18 3 -6 14 -10 24 -10 21 0 71 -22 71 -32 0 -5 6 -8 14
-8 25 0 29 -20 10 -48 -10 -16 -19 -22 -22 -14 -4 14 -32 17 -32 3 0 -5 7 -14
15 -21 8 -7 15 -19 15 -26 0 -17 40 -19 41 -1 0 6 5 1 10 -12 7 -18 14 -22 32
-17 26 6 40 -1 56 -32 7 -12 16 -20 20 -17 5 2 15 -2 22 -11 21 -25 52 -34 69
-19 8 8 52 16 98 20 54 4 90 12 102 22 30 26 73 41 95 32 20 -7 20 -8 -1 -8
-11 -1 -30 -11 -42 -24 -23 -24 -30 -43 -11 -32 6 4 9 0 7 -11 -2 -13 4 -20
20 -22 13 -2 26 -10 28 -17 7 -17 54 -12 68 7 15 21 36 11 36 -17 0 -24 0 -24
33 -7 17 9 34 20 35 25 2 4 8 5 13 1 5 -3 9 0 9 5 0 6 5 11 11 11 5 0 7 -4 4
-10 -8 -12 1 -13 42 -1 19 6 35 6 38 1 3 -5 12 -7 20 -4 8 4 12 10 9 15 -3 5
5 9 18 9 27 0 78 -21 78 -32 0 -5 9 -8 20 -8 11 0 20 -5 20 -11 0 -16 51 -1
73 21 9 11 17 23 17 28 0 5 7 15 15 22 13 11 15 8 15 -16 0 -40 -37 -92 -145
-204 -63 -65 -96 -109 -105 -135 -7 -22 -24 -60 -38 -85 -15 -25 -28 -55 -29
-66 -3 -18 1 -21 23 -16 l27 5 -6 -67 c-9 -100 21 -148 65 -104 l22 22 10 -25
c6 -13 15 -27 21 -31 5 -4 6 -8 1 -8 -5 0 -1 -9 9 -20 10 -11 29 -20 42 -20
22 0 105 -33 130 -53 10 -7 9 -14 -5 -32 -20 -26 -22 -109 -3 -128 6 -6 11
-20 11 -32 1 -17 6 -14 34 18 39 44 60 111 59 185 -2 94 -10 109 -69 147 -81
52 -153 161 -154 232 0 43 56 105 124 140 28 14 72 41 99 60 55 41 108 51 157
31 l34 -14 -161 -106 c-162 -107 -188 -128 -157 -128 57 0 215 88 348 193 35
28 47 31 120 34 88 4 103 11 87 41 -8 14 -25 22 -68 27 -32 4 -82 16 -111 27
-59 22 -132 87 -131 116 0 10 3 12 6 5 2 -7 17 -13 33 -13 15 0 50 -15 77 -34
26 -18 60 -36 73 -40 54 -16 110 -39 106 -44 -15 -14 58 -56 102 -57 19 -1 37
-7 41 -13 3 -6 20 -14 36 -18 17 -4 36 -11 43 -17 7 -6 34 -10 60 -10 26 0 53
-4 60 -10 20 -16 202 -15 234 1 15 7 30 17 33 23 7 11 55 12 55 2 0 -5 -7 -17
-15 -27 -8 -11 -15 -28 -15 -38 0 -29 -82 -104 -151 -139 -35 -17 -112 -44
-172 -59 -60 -15 -105 -30 -101 -32 5 -3 33 -6 62 -6 63 -1 72 -6 65 -33 -5
-19 -2 -20 68 -20 41 0 85 0 99 -1 59 -3 186 23 220 46 46 31 82 39 105 22 24
-17 11 -41 -61 -104 l-56 -50 59 -6 c96 -8 182 -21 188 -28 4 -3 -9 -28 -28
-55 -19 -26 -49 -76 -67 -111 -32 -61 -33 -63 -14 -80 39 -36 99 -72 121 -72
41 0 25 20 -37 47 -82 35 -86 54 -26 131 25 32 46 64 46 70 0 14 21 16 36 4 5
-5 29 -15 53 -22 24 -8 46 -20 48 -28 4 -9 14 -11 29 -8 18 5 27 0 40 -19 10
-15 26 -25 40 -25 49 0 85 -67 47 -89 -15 -8 -15 -11 -3 -26 12 -15 12 -18 -4
-27 -16 -9 -15 -13 19 -48 24 -24 43 -36 55 -33 38 10 28 -18 -25 -69 -48 -45
-56 -57 -51 -80 3 -16 2 -28 -2 -28 -4 0 -38 -30 -77 -66 -67 -62 -69 -65 -50
-79 68 -49 71 -54 74 -100 3 -61 -25 -58 -44 5 -12 40 -45 70 -78 70 -22 0
-41 -11 -70 -42 -55 -58 -70 -99 -69 -187 1 -55 -4 -84 -19 -114 -16 -35 -18
-46 -8 -69 6 -15 15 -25 20 -22 5 3 9 -9 9 -25 0 -19 -5 -31 -13 -31 -7 0 -22
-8 -33 -18 -11 -9 -49 -39 -84 -67 -85 -66 -95 -76 -97 -103 -1 -15 4 -22 17
-22 22 0 39 22 22 28 -14 4 -6 22 9 22 6 0 7 -4 4 -10 -3 -5 1 -10 10 -10 10
0 41 24 70 52 29 29 70 67 92 85 48 38 60 82 68 263 3 68 9 128 13 132 5 5 21
-19 35 -52 16 -34 33 -60 42 -60 8 0 15 -4 15 -10 0 -5 8 -10 19 -10 15 0 19
-12 26 -77 4 -43 7 -93 6 -112 -1 -19 6 -45 15 -59 20 -30 37 -219 29 -307 -4
-39 -3 -55 4 -45 14 22 66 183 96 296 14 54 44 155 65 224 21 69 52 177 69
241 40 152 72 219 132 273 46 41 157 106 209 121 43 13 224 96 251 116 14 10
66 33 115 50 276 100 747 410 919 606 128 144 205 242 268 339 223 340 383
741 431 1074 61 426 44 931 -44 1266 -52 197 -195 548 -301 739 -95 171 -256
408 -371 545 -154 183 -465 494 -588 587 -221 167 -455 315 -670 423 -190 96
-501 210 -720 264 -116 29 -258 47 -266 34 -3 -4 -10 -8 -15 -8 -6 0 -7 5 -4
10 3 6 -3 10 -15 10 -15 0 -20 -5 -18 -17z m-157 -822 c-3 -6 -11 -11 -17 -11
-6 0 -6 6 2 15 14 17 26 13 15 -4z m65 -90 c-12 -23 -30 -28 -30 -9 0 16 34
52 38 39 2 -5 -2 -19 -8 -30z m620 -215 c0 -3 -4 -8 -10 -11 -5 -3 -10 -1 -10
4 0 6 5 11 10 11 6 0 10 -2 10 -4z m150 -56 c0 -5 -7 -7 -15 -4 -8 4 -12 10
-9 15 6 11 24 2 24 -11z m-560 -260 c0 -5 -4 -10 -10 -10 -5 0 -10 5 -10 10 0
6 5 10 10 10 6 0 10 -4 10 -10z m-1960 -755 c6 -8 9 -19 5 -25 -10 -17 -32
-11 -38 9 -8 32 12 42 33 16z m838 -167 c-7 -20 -48 -23 -48 -4 0 11 9 16 26
16 16 0 24 -5 22 -12z m1142 -458 c0 -5 -4 -10 -10 -10 -5 0 -10 5 -10 10 0 6
5 10 10 10 6 0 10 -4 10 -10z m750 -124 c0 -32 -12 -39 -36 -22 -15 12 -16 16
-5 30 20 24 41 20 41 -8z m-120 -57 c0 -5 -9 -9 -20 -9 -22 0 -27 16 -7 23 15
5 27 -1 27 -14z m-10 -80 c0 -5 -7 -9 -15 -9 -15 0 -20 12 -9 23 8 8 24 -1 24
-14z m-915 -299 c3 -5 1 -10 -4 -10 -6 0 -11 5 -11 10 0 6 2 10 4 10 3 0 8 -4
11 -10z m-1737 -1369 c7 -22 -71 15 -80 38 l-8 23 42 -25 c23 -14 44 -30 46
-36z m3071 8 c-19 -12 -59 -11 -59 1 0 6 11 10 24 10 14 0 28 5 32 12 6 9 9 9
12 -1 2 -7 -2 -17 -9 -22z m-3204 -11 c14 -6 25 -15 25 -20 0 -4 8 -8 17 -8 9
0 14 -2 11 -5 -10 -10 -88 19 -88 32 0 16 3 16 35 1z m3598 -5 c-7 -2 -19 -2
-25 0 -7 3 -2 5 12 5 14 0 19 -2 13 -5z m-1126 -1755 c-3 -7 -5 -2 -5 12 0 14
2 19 5 13 2 -7 2 -19 0 -25z m-263 -193 c-4 -8 -11 -15 -16 -15 -6 0 -5 6 2
15 7 8 14 15 16 15 2 0 1 -7 -2 -15z"/>
<path d="M2780 7064 c0 -14 4 -23 10 -19 6 3 10 15 10 26 0 10 -4 19 -10 19
-5 0 -10 -12 -10 -26z"/>
<path d="M2818 6783 c7 -3 16 -2 19 1 4 3 -2 6 -13 5 -11 0 -14 -3 -6 -6z"/>
<path d="M4556 6626 c7 -19 38 -22 32 -3 -3 6 -12 13 -21 15 -12 2 -15 -1 -11
-12z"/>
<path d="M4660 6630 c0 -5 5 -10 10 -10 6 0 10 5 10 10 0 6 -4 10 -10 10 -5 0
-10 -4 -10 -10z"/>
<path d="M3175 6550 c-3 -5 -1 -10 4 -10 6 0 11 5 11 10 0 6 -2 10 -4 10 -3 0
-8 -4 -11 -10z"/>
<path d="M2785 6460 c-3 -5 1 -10 9 -10 9 0 16 5 16 10 0 6 -4 10 -9 10 -6 0
-13 -4 -16 -10z"/>
<path d="M5886 5505 c-3 -9 0 -15 9 -15 8 0 15 7 15 15 0 8 -4 15 -9 15 -5 0
-11 -7 -15 -15z"/>
<path d="M7867 4343 c-4 -3 -7 -11 -7 -17 0 -6 5 -5 12 2 6 6 9 14 7 17 -3 3
-9 2 -12 -2z"/>
<path d="M2350 4334 c-84 -13 -243 -49 -257 -59 -46 -34 52 -46 146 -18 53 16
242 8 340 -13 69 -16 104 -34 193 -100 31 -24 75 -52 98 -64 l40 -20 0 32 c0
27 -11 43 -65 95 -107 102 -241 154 -390 152 -44 -1 -91 -3 -105 -5z"/>
<path d="M1839 4153 c-1 -10 0 -25 1 -32 1 -12 -1 -12 -12 -3 -12 9 -15 9 -15
-3 0 -8 6 -16 14 -16 7 -1 18 -2 24 -3 6 -1 12 16 14 37 1 25 -2 37 -12 37 -7
0 -14 -8 -14 -17z"/>
<path d="M3131 4066 c-14 -17 9 -39 33 -30 12 5 13 10 5 25 -12 22 -22 24 -38
5z"/>
<path d="M1833 4049 c-16 -16 5 -69 60 -156 48 -74 67 -94 67 -69 0 8 -4 18
-10 21 -5 3 -10 18 -11 33 0 30 -68 173 -84 179 -6 2 -16 -2 -22 -8z"/>
<path d="M4828 3413 c7 -3 16 -2 19 1 4 3 -2 6 -13 5 -11 0 -14 -3 -6 -6z"/>
<path d="M1850 3260 c0 -5 22 -7 53 -3 71 8 72 13 4 13 -31 0 -57 -4 -57 -10z"/>
<path d="M5545 3219 c-4 -6 -5 -13 -2 -16 7 -7 27 6 27 18 0 12 -17 12 -25 -2z"/>
<path d="M5493 3187 c-29 -13 -38 -37 -14 -37 20 0 45 24 39 38 -2 6 -12 5
-25 -1z"/>
<path d="M2090 3103 c0 -14 70 -64 80 -58 17 10 11 33 -12 49 -23 16 -68 22
-68 9z"/>
<path d="M2124 2916 c-22 -55 100 -182 198 -205 54 -12 223 -5 267 11 23 8 23
9 6 28 -29 32 -90 44 -154 31 -30 -6 -70 -11 -90 -11 -71 1 -166 61 -201 129
-16 31 -19 33 -26 17z"/>
<path d="M5890 2901 c0 -32 19 -71 34 -71 8 0 30 -15 50 -33 23 -22 39 -30 45
-24 16 16 -4 43 -48 68 -35 19 -38 24 -28 41 10 15 9 21 -3 28 -25 16 -50 12
-50 -9z"/>
<path d="M5985 2900 c-3 -5 -1 -10 4 -10 6 0 11 5 11 10 0 6 -2 10 -4 10 -3 0
-8 -4 -11 -10z"/>
<path d="M3577 2543 c-13 -12 -7 -40 14 -67 38 -49 52 -25 22 39 -17 35 -24
41 -36 28z"/>
<path d="M3924 2414 c3 -9 6 -20 6 -25 0 -4 7 -6 15 -3 20 8 19 30 -1 38 -24
9 -27 8 -20 -10z"/>
<path d="M5725 2030 c-13 -15 -15 -24 -8 -31 16 -16 31 -3 31 26 0 30 0 30
-23 5z"/>
</g>
</svg>
